<svg xmlns="http://www.w3.org/2000/svg" xmlns:xlink="http://www.w3.org/1999/xlink" width="627" zoomAndPan="magnify" viewBox="0 0 470.25 253.499997" height="338" preserveAspectRatio="xMidYMid meet" version="1.0"><defs><filter x="0%" y="0%" width="100%" height="100%" id="59e6090a0c"><feColorMatrix values="0 0 0 0 1 0 0 0 0 1 0 0 0 0 1 0 0 0 1 0" color-interpolation-filters="sRGB"/></filter><g/><mask id="e1e74c7e15"><g filter="url(#59e6090a0c)"><rect x="-47.025" width="564.3" fill="#000000" y="-25.35" height="304.199997" fill-opacity="0.23"/></g></mask><clipPath id="4e4231d108"><rect x="0" width="409" y="0" height="196"/></clipPath></defs><g mask="url(#e1e74c7e15)"><g transform="matrix(1, 0, 0, 1, 30, 26)"><g clip-path="url(#4e4231d108)"><g fill="#3a2369" fill-opacity="1"><g transform="translate(64.295079, 169.481026)"><g><path d="M -0.203125 -11.171875 C -1.234375 -11.628906 -1.972656 -12.25 -2.421875 -13.03125 C -2.878906 -13.8125 -2.867188 -14.679688 -2.390625 -15.640625 C -2.140625 -16.441406 -1.644531 -17.03125 -0.90625 -17.40625 C -0.175781 -17.789062 0.664062 -17.878906 1.625 -17.671875 C 4.882812 -16.515625 8.238281 -16.039062 11.6875 -16.25 C 15.144531 -16.457031 18.625 -17.679688 22.125 -19.921875 C 23.957031 -21.109375 25.578125 -22.59375 26.984375 -24.375 C 28.390625 -26.164062 29.273438 -28.085938 29.640625 -30.140625 C 30.003906 -32.191406 29.550781 -34.207031 28.28125 -36.1875 C 26.96875 -38.226562 25.3125 -39.492188 23.3125 -39.984375 C 21.320312 -40.472656 19.15625 -40.472656 16.8125 -39.984375 C 14.476562 -39.503906 12.082031 -38.847656 9.625 -38.015625 C 7.007812 -37.179688 4.40625 -36.46875 1.8125 -35.875 C -0.78125 -35.28125 -3.253906 -35.035156 -5.609375 -35.140625 C -7.972656 -35.253906 -10.175781 -35.816406 -12.21875 -36.828125 C -14.257812 -37.835938 -16.039062 -39.523438 -17.5625 -41.890625 C -19.34375 -44.660156 -20.148438 -47.585938 -19.984375 -50.671875 C -19.828125 -53.753906 -18.832031 -56.722656 -17 -59.578125 C -15.164062 -62.441406 -12.601562 -64.929688 -9.3125 -67.046875 C -7.664062 -68.109375 -5.75 -69.035156 -3.5625 -69.828125 C -1.375 -70.628906 0.957031 -71.128906 3.4375 -71.328125 C 5.914062 -71.523438 8.4375 -71.234375 11 -70.453125 C 11.957031 -70.242188 12.679688 -69.757812 13.171875 -69 C 13.660156 -68.238281 13.769531 -67.351562 13.5 -66.34375 C 13.226562 -65.601562 12.742188 -65.007812 12.046875 -64.5625 C 11.359375 -64.125 10.613281 -64.023438 9.8125 -64.265625 C 7.09375 -65.023438 4.347656 -65.164062 1.578125 -64.6875 C -1.179688 -64.207031 -3.816406 -63.160156 -6.328125 -61.546875 C -8.234375 -60.316406 -9.828125 -58.851562 -11.109375 -57.15625 C -12.390625 -55.457031 -13.1875 -53.617188 -13.5 -51.640625 C -13.8125 -49.671875 -13.316406 -47.664062 -12.015625 -45.625 C -10.648438 -43.800781 -8.972656 -42.6875 -6.984375 -42.28125 C -5.003906 -41.875 -2.753906 -41.921875 -0.234375 -42.421875 C 2.273438 -42.921875 4.992188 -43.648438 7.921875 -44.609375 C 10.367188 -45.429688 12.796875 -46.101562 15.203125 -46.625 C 17.617188 -47.15625 19.914062 -47.347656 22.09375 -47.203125 C 24.269531 -47.066406 26.332031 -46.460938 28.28125 -45.390625 C 30.226562 -44.316406 32.007812 -42.53125 33.625 -40.03125 C 35.476562 -37.132812 36.273438 -34.109375 36.015625 -30.953125 C 35.765625 -27.804688 34.644531 -24.804688 32.65625 -21.953125 C 30.675781 -19.109375 28.039062 -16.625 24.75 -14.5 C 21.1875 -12.21875 17.296875 -10.703125 13.078125 -9.953125 C 8.867188 -9.203125 4.441406 -9.609375 -0.203125 -11.171875 Z M -0.203125 -11.171875 "/></g></g></g><g fill="#3a2369" fill-opacity="1"><g transform="translate(101.367929, 145.339249)"><g><path d="M -18.453125 -57.140625 L 6.734375 -67.859375 C 7.597656 -68.222656 8.445312 -68.21875 9.28125 -67.84375 C 10.113281 -67.476562 10.710938 -66.863281 11.078125 -66 C 11.421875 -65.207031 11.425781 -64.398438 11.09375 -63.578125 C 10.769531 -62.765625 10.175781 -62.175781 9.3125 -61.8125 L -15.875 -51.09375 C -16.726562 -50.71875 -17.59375 -50.703125 -18.46875 -51.046875 C -19.34375 -51.398438 -19.953125 -51.972656 -20.296875 -52.765625 C -20.660156 -53.628906 -20.65625 -54.476562 -20.28125 -55.3125 C -19.914062 -56.15625 -19.304688 -56.765625 -18.453125 -57.140625 Z M -13.828125 -77.109375 C -12.878906 -77.503906 -11.957031 -77.503906 -11.0625 -77.109375 C -10.175781 -76.722656 -9.550781 -76.097656 -9.1875 -75.234375 L 13.90625 -20.984375 C 14.769531 -18.972656 15.679688 -17.578125 16.640625 -16.796875 C 17.609375 -16.015625 18.597656 -15.644531 19.609375 -15.6875 C 20.617188 -15.726562 21.554688 -15.929688 22.421875 -16.296875 C 22.992188 -16.546875 23.472656 -16.859375 23.859375 -17.234375 C 24.253906 -17.617188 24.738281 -17.9375 25.3125 -18.1875 C 25.96875 -18.457031 26.632812 -18.441406 27.3125 -18.140625 C 28 -17.847656 28.515625 -17.300781 28.859375 -16.5 C 29.285156 -15.5 29.066406 -14.40625 28.203125 -13.21875 C 27.335938 -12.039062 26.117188 -11.117188 24.546875 -10.453125 C 23.890625 -10.171875 22.890625 -9.804688 21.546875 -9.359375 C 20.203125 -8.921875 18.695312 -8.75 17.03125 -8.84375 C 15.375 -8.945312 13.726562 -9.671875 12.09375 -11.015625 C 10.457031 -12.367188 8.945312 -14.671875 7.5625 -17.921875 L -15.671875 -72.484375 C -16.035156 -73.347656 -16.050781 -74.234375 -15.71875 -75.140625 C -15.394531 -76.046875 -14.765625 -76.703125 -13.828125 -77.109375 Z M -13.828125 -77.109375 "/></g></g></g><g fill="#3a2369" fill-opacity="1"><g transform="translate(128.428258, 132.780241)"><g><path d="M 12.390625 -3.203125 C 11.328125 -2.929688 10.40625 -3.054688 9.625 -3.578125 C 8.84375 -4.109375 8.332031 -4.832031 8.09375 -5.75 L -5.078125 -56.703125 C -5.304688 -57.609375 -5.1875 -58.484375 -4.71875 -59.328125 C -4.25 -60.171875 -3.523438 -60.71875 -2.546875 -60.96875 C -1.554688 -61.226562 -0.648438 -61.101562 0.171875 -60.59375 C 0.992188 -60.082031 1.519531 -59.375 1.75 -58.46875 L 6.171875 -41.390625 L 4.53125 -40.59375 C 4.09375 -43.3125 4.082031 -46.117188 4.5 -49.015625 C 4.925781 -51.921875 5.800781 -54.71875 7.125 -57.40625 C 8.457031 -60.09375 10.25 -62.457031 12.5 -64.5 C 14.757812 -66.539062 17.523438 -67.988281 20.796875 -68.84375 C 22.160156 -69.1875 23.554688 -69.238281 24.984375 -69 C 26.421875 -68.757812 27.304688 -67.992188 27.640625 -66.703125 C 27.929688 -65.578125 27.847656 -64.628906 27.390625 -63.859375 C 26.941406 -63.097656 26.304688 -62.613281 25.484375 -62.40625 C 24.796875 -62.226562 24.003906 -62.222656 23.109375 -62.390625 C 22.222656 -62.554688 21.132812 -62.472656 19.84375 -62.140625 C 17.726562 -61.585938 15.769531 -60.410156 13.96875 -58.609375 C 12.164062 -56.816406 10.664062 -54.632812 9.46875 -52.0625 C 8.269531 -49.488281 7.5 -46.765625 7.15625 -43.890625 C 6.8125 -41.015625 6.984375 -38.25 7.671875 -35.59375 L 14.921875 -7.515625 C 15.160156 -6.597656 15.023438 -5.707031 14.515625 -4.84375 C 14.015625 -3.988281 13.304688 -3.441406 12.390625 -3.203125 Z M 12.390625 -3.203125 "/></g></g></g><g fill="#3a2369" fill-opacity="1"><g transform="translate(160.049142, 122.259357)"><g><path d="M 36.4375 -0.734375 C 30.414062 -0.421875 25.03125 -1.429688 20.28125 -3.765625 C 15.53125 -6.097656 11.738281 -9.503906 8.90625 -13.984375 C 6.070312 -18.460938 4.492188 -23.789062 4.171875 -29.96875 C 3.828125 -36.613281 4.84375 -42.351562 7.21875 -47.1875 C 9.601562 -52.019531 12.820312 -55.816406 16.875 -58.578125 C 20.925781 -61.347656 25.296875 -62.851562 29.984375 -63.09375 C 33.421875 -63.28125 36.789062 -62.847656 40.09375 -61.796875 C 43.40625 -60.753906 46.394531 -59.109375 49.0625 -56.859375 C 51.726562 -54.609375 53.914062 -51.800781 55.625 -48.4375 C 57.332031 -45.070312 58.382812 -41.128906 58.78125 -36.609375 C 58.757812 -35.660156 58.410156 -34.835938 57.734375 -34.140625 C 57.054688 -33.441406 56.25 -33.066406 55.3125 -33.015625 L 8.28125 -30.546875 L 6.53125 -36.8125 L 52.75 -39.234375 L 51.3125 -37.734375 L 51.1875 -40.09375 C 50.675781 -43.75 49.335938 -46.8125 47.171875 -49.28125 C 45.003906 -51.757812 42.4375 -53.585938 39.46875 -54.765625 C 36.507812 -55.941406 33.46875 -56.445312 30.34375 -56.28125 C 27.988281 -56.164062 25.601562 -55.570312 23.1875 -54.5 C 20.769531 -53.425781 18.617188 -51.84375 16.734375 -49.75 C 14.847656 -47.65625 13.359375 -45.03125 12.265625 -41.875 C 11.179688 -38.71875 10.75 -35.023438 10.96875 -30.796875 C 11.207031 -26.191406 12.363281 -22.0625 14.4375 -18.40625 C 16.507812 -14.75 19.378906 -11.921875 23.046875 -9.921875 C 26.722656 -7.921875 31.03125 -7.050781 35.96875 -7.3125 C 38.695312 -7.445312 41.132812 -7.960938 43.28125 -8.859375 C 45.4375 -9.753906 47.300781 -10.890625 48.875 -12.265625 C 50.445312 -13.640625 51.742188 -15.066406 52.765625 -16.546875 C 53.585938 -17.285156 54.429688 -17.675781 55.296875 -17.71875 C 56.078125 -17.757812 56.78125 -17.484375 57.40625 -16.890625 C 58.03125 -16.296875 58.363281 -15.609375 58.40625 -14.828125 C 58.445312 -13.890625 58.09375 -13.046875 57.34375 -12.296875 C 55.144531 -9.359375 52.222656 -6.753906 48.578125 -4.484375 C 44.929688 -2.222656 40.882812 -0.972656 36.4375 -0.734375 Z M 36.4375 -0.734375 "/></g></g></g><g fill="#3a2369" fill-opacity="1"><g transform="translate(214.557964, 119.540714)"><g><path d="M 13.578125 -58.484375 L 40.6875 -54.734375 C 41.613281 -54.597656 42.335938 -54.15625 42.859375 -53.40625 C 43.390625 -52.664062 43.59375 -51.832031 43.46875 -50.90625 C 43.34375 -50.050781 42.925781 -49.351562 42.21875 -48.8125 C 41.519531 -48.28125 40.707031 -48.082031 39.78125 -48.21875 L 12.671875 -51.96875 C 11.742188 -52.101562 10.992188 -52.539062 10.421875 -53.28125 C 9.847656 -54.019531 9.625 -54.820312 9.75 -55.6875 C 9.875 -56.613281 10.3125 -57.34375 11.0625 -57.875 C 11.8125 -58.414062 12.648438 -58.617188 13.578125 -58.484375 Z M 27.8125 -73.234375 C 28.820312 -73.097656 29.609375 -72.628906 30.171875 -71.828125 C 30.742188 -71.035156 30.960938 -70.175781 30.828125 -69.25 L 22.734375 -10.84375 C 22.429688 -8.675781 22.492188 -7.007812 22.921875 -5.84375 C 23.347656 -4.675781 24.003906 -3.847656 24.890625 -3.359375 C 25.773438 -2.878906 26.6875 -2.570312 27.625 -2.4375 C 28.238281 -2.351562 28.8125 -2.375 29.34375 -2.5 C 29.875 -2.632812 30.453125 -2.660156 31.078125 -2.578125 C 31.773438 -2.472656 32.335938 -2.113281 32.765625 -1.5 C 33.191406 -0.894531 33.347656 -0.164062 33.234375 0.6875 C 33.085938 1.769531 32.335938 2.59375 30.984375 3.15625 C 29.640625 3.726562 28.117188 3.894531 26.421875 3.65625 C 25.710938 3.5625 24.664062 3.359375 23.28125 3.046875 C 21.90625 2.734375 20.535156 2.109375 19.171875 1.171875 C 17.804688 0.242188 16.765625 -1.21875 16.046875 -3.21875 C 15.335938 -5.21875 15.226562 -7.96875 15.71875 -11.46875 L 23.859375 -70.21875 C 23.992188 -71.144531 24.429688 -71.914062 25.171875 -72.53125 C 25.921875 -73.144531 26.800781 -73.378906 27.8125 -73.234375 Z M 27.8125 -73.234375 "/></g></g></g><g fill="#3a2369" fill-opacity="1"><g transform="translate(243.216686, 121.546499)"><g><path d="M 53.09375 -47.234375 C 56.664062 -46.054688 59.8125 -44.582031 62.53125 -42.8125 C 65.257812 -41.050781 67.3125 -39.203125 68.6875 -37.265625 C 70.0625 -35.328125 70.492188 -33.582031 69.984375 -32.03125 C 69.742188 -31.28125 69.25 -30.632812 68.5 -30.09375 C 67.75 -29.5625 66.925781 -29.441406 66.03125 -29.734375 C 65.132812 -30.035156 64.476562 -30.5 64.0625 -31.125 C 63.65625 -31.757812 63.269531 -32.460938 62.90625 -33.234375 C 62.550781 -34.015625 61.9375 -34.84375 61.0625 -35.71875 C 60.238281 -36.46875 58.992188 -37.320312 57.328125 -38.28125 C 55.671875 -39.25 53.691406 -40.113281 51.390625 -40.875 C 47.222656 -42.238281 43.117188 -42.425781 39.078125 -41.4375 C 35.046875 -40.457031 31.484375 -38.515625 28.390625 -35.609375 C 25.296875 -32.710938 23.023438 -29.066406 21.578125 -24.671875 C 20.109375 -20.210938 19.71875 -15.890625 20.40625 -11.703125 C 21.09375 -7.523438 22.738281 -3.875 25.34375 -0.75 C 27.945312 2.363281 31.445312 4.640625 35.84375 6.078125 C 38.8125 7.054688 41.203125 7.554688 43.015625 7.578125 C 44.828125 7.597656 46.4375 7.46875 47.84375 7.1875 C 49.519531 6.832031 50.800781 6.367188 51.6875 5.796875 C 52.582031 5.222656 53.550781 5.109375 54.59375 5.453125 C 55.5625 5.765625 56.195312 6.273438 56.5 6.984375 C 56.800781 7.703125 56.804688 8.515625 56.515625 9.421875 C 56.117188 10.609375 54.804688 11.640625 52.578125 12.515625 C 50.359375 13.390625 47.546875 13.863281 44.140625 13.9375 C 40.734375 14.007812 37.054688 13.398438 33.109375 12.109375 C 27.535156 10.273438 23.070312 7.367188 19.71875 3.390625 C 16.375 -0.585938 14.269531 -5.210938 13.40625 -10.484375 C 12.539062 -15.765625 13.035156 -21.226562 14.890625 -26.875 C 16.671875 -32.3125 19.488281 -36.867188 23.34375 -40.546875 C 27.195312 -44.234375 31.703125 -46.734375 36.859375 -48.046875 C 42.023438 -49.359375 47.4375 -49.085938 53.09375 -47.234375 Z M 53.09375 -47.234375 "/></g></g></g><g fill="#3a2369" fill-opacity="1"><g transform="translate(289.029797, 134.616527)"><g><path d="M 62.84375 -32.484375 C 67.039062 -29.921875 69.890625 -26.9375 71.390625 -23.53125 C 72.898438 -20.132812 73.332031 -16.519531 72.6875 -12.6875 C 72.039062 -8.863281 70.570312 -5.078125 68.28125 -1.328125 L 50.953125 27.015625 C 50.453125 27.828125 49.71875 28.347656 48.75 28.578125 C 47.78125 28.804688 46.894531 28.675781 46.09375 28.1875 C 45.164062 27.613281 44.613281 26.863281 44.4375 25.9375 C 44.269531 25.007812 44.4375 24.140625 44.9375 23.328125 L 62.265625 -5.015625 C 63.941406 -7.753906 65.035156 -10.484375 65.546875 -13.203125 C 66.066406 -15.921875 65.789062 -18.5 64.71875 -20.9375 C 63.644531 -23.382812 61.535156 -25.570312 58.390625 -27.5 C 55.585938 -29.207031 52.535156 -30.175781 49.234375 -30.40625 C 45.929688 -30.632812 42.835938 -30.113281 39.953125 -28.84375 C 37.066406 -27.582031 34.785156 -25.582031 33.109375 -22.84375 L 15.78125 5.5 C 15.28125 6.3125 14.546875 6.832031 13.578125 7.0625 C 12.609375 7.300781 11.722656 7.171875 10.921875 6.671875 C 9.984375 6.097656 9.429688 5.347656 9.265625 4.421875 C 9.097656 3.503906 9.265625 2.640625 9.765625 1.828125 L 51.421875 -66.3125 C 51.910156 -67.113281 52.625 -67.640625 53.5625 -67.890625 C 54.5 -68.140625 55.398438 -68.003906 56.265625 -67.484375 C 57.128906 -66.953125 57.660156 -66.210938 57.859375 -65.265625 C 58.066406 -64.316406 57.925781 -63.441406 57.4375 -62.640625 L 37.59375 -30.171875 L 33.140625 -28.078125 C 34.535156 -30.054688 36.414062 -31.671875 38.78125 -32.921875 C 41.15625 -34.179688 43.757812 -35.023438 46.59375 -35.453125 C 49.425781 -35.890625 52.253906 -35.863281 55.078125 -35.375 C 57.898438 -34.882812 60.488281 -33.921875 62.84375 -32.484375 Z M 62.84375 -32.484375 "/></g></g></g></g></g></g><g fill="#3a2369" fill-opacity="1"><g transform="translate(87.628679, 174.600282)"><g><path d="M 2.546875 -10.875 C 1.660156 -11.570312 1.085938 -12.351562 0.828125 -13.21875 C 0.578125 -14.09375 0.8125 -14.9375 1.53125 -15.75 C 1.957031 -16.46875 2.570312 -16.921875 3.375 -17.109375 C 4.175781 -17.296875 5.023438 -17.171875 5.921875 -16.734375 C 8.785156 -14.804688 11.914062 -13.519531 15.3125 -12.875 C 18.707031 -12.238281 22.378906 -12.578125 26.328125 -13.890625 C 28.398438 -14.585938 30.335938 -15.628906 32.140625 -17.015625 C 33.941406 -18.410156 35.269531 -20.050781 36.125 -21.9375 C 36.976562 -23.832031 37.03125 -25.898438 36.28125 -28.140625 C 35.507812 -30.441406 34.21875 -32.070312 32.40625 -33.03125 C 30.59375 -34 28.488281 -34.535156 26.09375 -34.640625 C 23.707031 -34.742188 21.226562 -34.695312 18.65625 -34.5 C 15.914062 -34.332031 13.210938 -34.273438 10.546875 -34.328125 C 7.890625 -34.390625 5.429688 -34.765625 3.171875 -35.453125 C 0.910156 -36.140625 -1.082031 -37.222656 -2.8125 -38.703125 C -4.539062 -40.191406 -5.851562 -42.269531 -6.75 -44.9375 C -7.789062 -48.050781 -7.851562 -51.082031 -6.9375 -54.03125 C -6.03125 -56.976562 -4.335938 -59.613281 -1.859375 -61.9375 C 0.617188 -64.257812 3.71875 -66.039062 7.4375 -67.28125 C 9.289062 -67.90625 11.375 -68.332031 13.6875 -68.5625 C 16 -68.800781 18.378906 -68.710938 20.828125 -68.296875 C 23.285156 -67.890625 25.660156 -66.992188 27.953125 -65.609375 C 28.828125 -65.171875 29.40625 -64.523438 29.6875 -63.671875 C 29.976562 -62.816406 29.863281 -61.925781 29.34375 -61 C 28.90625 -60.351562 28.296875 -59.898438 27.515625 -59.640625 C 26.742188 -59.378906 26 -59.457031 25.28125 -59.875 C 22.820312 -61.289062 20.191406 -62.101562 17.390625 -62.3125 C 14.585938 -62.53125 11.773438 -62.164062 8.953125 -61.21875 C 6.804688 -60.5 4.90625 -59.46875 3.25 -58.125 C 1.59375 -56.789062 0.367188 -55.207031 -0.421875 -53.375 C -1.210938 -51.539062 -1.222656 -49.472656 -0.453125 -47.171875 C 0.421875 -45.066406 1.769531 -43.570312 3.59375 -42.6875 C 5.414062 -41.8125 7.609375 -41.3125 10.171875 -41.1875 C 12.734375 -41.0625 15.550781 -41.101562 18.625 -41.3125 C 21.1875 -41.5 23.703125 -41.550781 26.171875 -41.46875 C 28.640625 -41.382812 30.910156 -41.007812 32.984375 -40.34375 C 35.066406 -39.6875 36.921875 -38.597656 38.546875 -37.078125 C 40.171875 -35.554688 41.457031 -33.382812 42.40625 -30.5625 C 43.5 -27.300781 43.535156 -24.175781 42.515625 -21.1875 C 41.492188 -18.195312 39.671875 -15.5625 37.046875 -13.28125 C 34.421875 -11 31.253906 -9.238281 27.546875 -8 C 23.535156 -6.65625 19.390625 -6.132812 15.109375 -6.4375 C 10.835938 -6.75 6.648438 -8.226562 2.546875 -10.875 Z M 2.546875 -10.875 "/></g></g></g><g fill="#3a2369" fill-opacity="1"><g transform="translate(128.710991, 160.631892)"><g><path d="M -8.3125 -59.46875 L 18.34375 -65.671875 C 19.257812 -65.890625 20.097656 -65.742188 20.859375 -65.234375 C 21.617188 -64.722656 22.109375 -64.015625 22.328125 -63.109375 C 22.523438 -62.265625 22.390625 -61.46875 21.921875 -60.71875 C 21.453125 -59.96875 20.757812 -59.484375 19.84375 -59.265625 L -6.8125 -53.0625 C -7.726562 -52.84375 -8.582031 -52.976562 -9.375 -53.46875 C -10.175781 -53.96875 -10.675781 -54.640625 -10.875 -55.484375 C -11.082031 -56.390625 -10.9375 -57.222656 -10.4375 -57.984375 C -9.9375 -58.753906 -9.226562 -59.25 -8.3125 -59.46875 Z M -0.28125 -78.328125 C 0.707031 -78.566406 1.601562 -78.414062 2.40625 -77.875 C 3.21875 -77.34375 3.734375 -76.617188 3.953125 -75.703125 L 17.34375 -18.28125 C 17.832031 -16.144531 18.484375 -14.609375 19.296875 -13.671875 C 20.117188 -12.734375 21.03125 -12.195312 22.03125 -12.0625 C 23.03125 -11.9375 23.988281 -11.984375 24.90625 -12.203125 C 25.507812 -12.335938 26.035156 -12.554688 26.484375 -12.859375 C 26.941406 -13.171875 27.472656 -13.398438 28.078125 -13.546875 C 28.765625 -13.703125 29.421875 -13.570312 30.046875 -13.15625 C 30.671875 -12.738281 31.082031 -12.113281 31.28125 -11.28125 C 31.53125 -10.207031 31.125 -9.164062 30.0625 -8.15625 C 29.007812 -7.144531 27.644531 -6.445312 25.96875 -6.0625 C 25.28125 -5.894531 24.234375 -5.707031 22.828125 -5.5 C 21.429688 -5.300781 19.925781 -5.394531 18.3125 -5.78125 C 16.707031 -6.164062 15.210938 -7.160156 13.828125 -8.765625 C 12.453125 -10.367188 11.363281 -12.890625 10.5625 -16.328125 L -2.90625 -74.09375 C -3.125 -75.007812 -2.988281 -75.882812 -2.5 -76.71875 C -2.019531 -77.5625 -1.28125 -78.097656 -0.28125 -78.328125 Z M -0.28125 -78.328125 "/></g></g></g><g fill="#3a2369" fill-opacity="1"><g transform="translate(156.4692, 153.571174)"><g><path d="M 12.65625 -1.859375 C 11.570312 -1.703125 10.671875 -1.925781 9.953125 -2.53125 C 9.234375 -3.144531 8.804688 -3.921875 8.671875 -4.859375 L 1 -56.921875 C 0.863281 -57.847656 1.070312 -58.703125 1.625 -59.484375 C 2.175781 -60.273438 2.953125 -60.742188 3.953125 -60.890625 C 4.960938 -61.046875 5.847656 -60.820312 6.609375 -60.21875 C 7.378906 -59.625 7.832031 -58.863281 7.96875 -57.9375 L 10.53125 -40.5 L 8.84375 -39.890625 C 8.675781 -42.628906 8.957031 -45.421875 9.6875 -48.265625 C 10.414062 -51.109375 11.582031 -53.796875 13.1875 -56.328125 C 14.789062 -58.859375 16.828125 -61.015625 19.296875 -62.796875 C 21.765625 -64.585938 24.664062 -65.734375 28 -66.234375 C 29.394531 -66.429688 30.789062 -66.335938 32.1875 -65.953125 C 33.59375 -65.566406 34.394531 -64.71875 34.59375 -63.40625 C 34.757812 -62.25 34.578125 -61.3125 34.046875 -60.59375 C 33.523438 -59.875 32.835938 -59.453125 31.984375 -59.328125 C 31.285156 -59.222656 30.5 -59.300781 29.625 -59.5625 C 28.757812 -59.832031 27.664062 -59.875 26.34375 -59.6875 C 24.175781 -59.363281 22.101562 -58.398438 20.125 -56.796875 C 18.144531 -55.203125 16.421875 -53.1875 14.953125 -50.75 C 13.492188 -48.320312 12.4375 -45.695312 11.78125 -42.875 C 11.132812 -40.050781 11.007812 -37.28125 11.40625 -34.5625 L 15.640625 -5.875 C 15.773438 -4.9375 15.546875 -4.066406 14.953125 -3.265625 C 14.359375 -2.472656 13.59375 -2.003906 12.65625 -1.859375 Z M 12.65625 -1.859375 "/></g></g></g><g fill="#3a2369" fill-opacity="1"><g transform="translate(188.682265, 147.491727)"><g><path d="M 36.4375 0 C 30.40625 0.1875 25.039062 -0.929688 20.34375 -3.359375 C 15.644531 -5.796875 11.925781 -9.28125 9.1875 -13.8125 C 6.457031 -18.34375 4.992188 -23.703125 4.796875 -29.890625 C 4.578125 -36.546875 5.703125 -42.257812 8.171875 -47.03125 C 10.648438 -51.8125 13.941406 -55.539062 18.046875 -58.21875 C 22.148438 -60.90625 26.550781 -62.328125 31.25 -62.484375 C 34.6875 -62.585938 38.046875 -62.082031 41.328125 -60.96875 C 44.617188 -59.863281 47.570312 -58.15625 50.1875 -55.84375 C 52.8125 -53.539062 54.941406 -50.695312 56.578125 -47.3125 C 58.222656 -43.925781 59.195312 -39.960938 59.5 -35.421875 C 59.457031 -34.472656 59.09375 -33.65625 58.40625 -32.96875 C 57.71875 -32.289062 56.90625 -31.9375 55.96875 -31.90625 L 8.90625 -30.375 L 7.28125 -36.671875 L 53.53125 -38.171875 L 52.0625 -36.703125 L 51.984375 -39.0625 C 51.546875 -42.726562 50.265625 -45.816406 48.140625 -48.328125 C 46.023438 -50.835938 43.5 -52.710938 40.5625 -53.953125 C 37.625 -55.191406 34.59375 -55.765625 31.46875 -55.671875 C 29.113281 -55.585938 26.71875 -55.035156 24.28125 -54.015625 C 21.84375 -52.992188 19.65625 -51.453125 17.71875 -49.390625 C 15.789062 -47.335938 14.253906 -44.742188 13.109375 -41.609375 C 11.960938 -38.484375 11.457031 -34.804688 11.59375 -30.578125 C 11.738281 -25.960938 12.804688 -21.804688 14.796875 -18.109375 C 16.796875 -14.421875 19.613281 -11.535156 23.25 -9.453125 C 26.882812 -7.378906 31.171875 -6.421875 36.109375 -6.578125 C 38.847656 -6.660156 41.296875 -7.128906 43.453125 -7.984375 C 45.617188 -8.835938 47.503906 -9.9375 49.109375 -11.28125 C 50.710938 -12.625 52.039062 -14.023438 53.09375 -15.484375 C 53.925781 -16.191406 54.773438 -16.5625 55.640625 -16.59375 C 56.421875 -16.613281 57.113281 -16.320312 57.71875 -15.71875 C 58.332031 -15.125 58.65625 -14.4375 58.6875 -13.65625 C 58.71875 -12.71875 58.347656 -11.882812 57.578125 -11.15625 C 55.328125 -8.25 52.351562 -5.695312 48.65625 -3.5 C 44.96875 -1.3125 40.894531 -0.144531 36.4375 0 Z M 36.4375 0 "/></g></g></g><g fill="#3a2369" fill-opacity="1"><g transform="translate(242.744499, 145.799256)"><g><path d="M 9.890625 -59.21875 L 37.1875 -57.15625 C 38.125 -57.082031 38.878906 -56.6875 39.453125 -55.96875 C 40.023438 -55.257812 40.273438 -54.441406 40.203125 -53.515625 C 40.140625 -52.648438 39.773438 -51.925781 39.109375 -51.34375 C 38.441406 -50.769531 37.640625 -50.519531 36.703125 -50.59375 L 9.40625 -52.65625 C 8.46875 -52.726562 7.691406 -53.117188 7.078125 -53.828125 C 6.460938 -54.535156 6.1875 -55.320312 6.25 -56.1875 C 6.320312 -57.113281 6.710938 -57.867188 7.421875 -58.453125 C 8.128906 -59.035156 8.953125 -59.289062 9.890625 -59.21875 Z M 23.203125 -74.828125 C 24.222656 -74.742188 25.035156 -74.320312 25.640625 -73.5625 C 26.253906 -72.8125 26.523438 -71.972656 26.453125 -71.046875 L 22.015625 -12.234375 C 21.847656 -10.054688 22.015625 -8.394531 22.515625 -7.25 C 23.015625 -6.113281 23.71875 -5.332031 24.625 -4.90625 C 25.539062 -4.488281 26.46875 -4.242188 27.40625 -4.171875 C 28.03125 -4.117188 28.601562 -4.171875 29.125 -4.328125 C 29.65625 -4.492188 30.226562 -4.550781 30.84375 -4.5 C 31.550781 -4.445312 32.140625 -4.128906 32.609375 -3.546875 C 33.078125 -2.960938 33.28125 -2.238281 33.21875 -1.375 C 33.132812 -0.289062 32.4375 0.570312 31.125 1.21875 C 29.820312 1.875 28.3125 2.140625 26.59375 2.015625 C 25.882812 1.953125 24.832031 1.804688 23.4375 1.578125 C 22.039062 1.359375 20.628906 0.828125 19.203125 -0.015625 C 17.773438 -0.867188 16.644531 -2.269531 15.8125 -4.21875 C 14.976562 -6.164062 14.691406 -8.90625 14.953125 -12.4375 L 19.421875 -71.578125 C 19.492188 -72.503906 19.882812 -73.296875 20.59375 -73.953125 C 21.3125 -74.609375 22.179688 -74.898438 23.203125 -74.828125 Z M 23.203125 -74.828125 "/></g></g></g><g fill="#3a2369" fill-opacity="1"><g transform="translate(270.632928, 146.76729)"><g><path d="M 45.9375 -54.21875 C 49.644531 -53.550781 52.96875 -52.535156 55.90625 -51.171875 C 58.84375 -49.816406 61.128906 -48.273438 62.765625 -46.546875 C 64.410156 -44.828125 65.09375 -43.160156 64.8125 -41.546875 C 64.664062 -40.765625 64.253906 -40.050781 63.578125 -39.40625 C 62.910156 -38.769531 62.117188 -38.535156 61.203125 -38.703125 C 60.265625 -38.867188 59.550781 -39.238281 59.0625 -39.8125 C 58.570312 -40.382812 58.09375 -41.03125 57.625 -41.75 C 57.15625 -42.46875 56.429688 -43.191406 55.453125 -43.921875 C 54.535156 -44.566406 53.179688 -45.242188 51.390625 -45.953125 C 49.609375 -46.671875 47.523438 -47.242188 45.140625 -47.671875 C 40.828125 -48.441406 36.738281 -48.054688 32.875 -46.515625 C 29.019531 -44.972656 25.757812 -42.550781 23.09375 -39.25 C 20.4375 -35.945312 18.703125 -32.019531 17.890625 -27.46875 C 17.066406 -22.84375 17.285156 -18.503906 18.546875 -14.453125 C 19.816406 -10.410156 21.960938 -7.03125 24.984375 -4.3125 C 28.003906 -1.59375 31.789062 0.171875 36.34375 0.984375 C 39.425781 1.535156 41.859375 1.691406 43.640625 1.453125 C 45.429688 1.222656 47.007812 0.867188 48.375 0.390625 C 49.988281 -0.191406 51.191406 -0.828125 51.984375 -1.515625 C 52.785156 -2.203125 53.726562 -2.453125 54.8125 -2.265625 C 55.8125 -2.085938 56.515625 -1.664062 56.921875 -1 C 57.328125 -0.332031 57.445312 0.46875 57.28125 1.40625 C 57.0625 2.632812 55.90625 3.832031 53.8125 5 C 51.726562 6.175781 49.007812 7.039062 45.65625 7.59375 C 42.300781 8.15625 38.578125 8.070312 34.484375 7.34375 C 28.710938 6.3125 23.882812 4.054688 20 0.578125 C 16.125 -2.890625 13.382812 -7.171875 11.78125 -12.265625 C 10.1875 -17.367188 9.910156 -22.847656 10.953125 -28.703125 C 11.960938 -34.328125 14.113281 -39.234375 17.40625 -43.421875 C 20.707031 -47.609375 24.820312 -50.710938 29.75 -52.734375 C 34.6875 -54.765625 40.082031 -55.257812 45.9375 -54.21875 Z M 45.9375 -54.21875 "/></g></g></g><g fill="#3a2369" fill-opacity="1"><g transform="translate(317.662405, 154.060971)"><g><path d="M 53.34375 -46.453125 C 58.039062 -44.953125 61.519531 -42.726562 63.78125 -39.78125 C 66.050781 -36.832031 67.328125 -33.421875 67.609375 -29.546875 C 67.890625 -25.679688 67.363281 -21.660156 66.03125 -17.484375 L 55.90625 14.171875 C 55.613281 15.066406 55.019531 15.742188 54.125 16.203125 C 53.238281 16.660156 52.351562 16.75 51.46875 16.46875 C 50.425781 16.132812 49.710938 15.535156 49.328125 14.671875 C 48.941406 13.804688 48.894531 12.925781 49.1875 12.03125 L 59.3125 -19.625 C 60.289062 -22.675781 60.707031 -25.582031 60.5625 -28.34375 C 60.414062 -31.113281 59.53125 -33.5625 57.90625 -35.6875 C 56.28125 -37.8125 53.710938 -39.429688 50.203125 -40.546875 C 47.078125 -41.546875 43.882812 -41.765625 40.625 -41.203125 C 37.363281 -40.648438 34.476562 -39.414062 31.96875 -37.5 C 29.46875 -35.582031 27.726562 -33.097656 26.75 -30.046875 L 16.625 1.609375 C 16.332031 2.503906 15.742188 3.179688 14.859375 3.640625 C 13.984375 4.097656 13.09375 4.1875 12.1875 3.90625 C 11.144531 3.570312 10.429688 2.972656 10.046875 2.109375 C 9.671875 1.242188 9.628906 0.363281 9.921875 -0.53125 L 34.25 -76.609375 C 34.539062 -77.503906 35.109375 -78.179688 35.953125 -78.640625 C 36.804688 -79.109375 37.710938 -79.1875 38.671875 -78.875 C 39.640625 -78.570312 40.332031 -77.984375 40.75 -77.109375 C 41.175781 -76.242188 41.242188 -75.363281 40.953125 -74.46875 L 29.359375 -38.21875 L 25.546875 -35.125 C 26.429688 -37.382812 27.875 -39.40625 29.875 -41.1875 C 31.882812 -42.96875 34.210938 -44.398438 36.859375 -45.484375 C 39.515625 -46.578125 42.269531 -47.222656 45.125 -47.421875 C 47.988281 -47.617188 50.726562 -47.296875 53.34375 -46.453125 Z M 53.34375 -46.453125 "/></g></g></g></svg>